<?xml version="1.0" encoding="UTF-8" standalone="no"?>
<svg xmlns="http://www.w3.org/2000/svg" xmlns:xlink="http://www.w3.org/1999/xlink" contentScriptType="application/ecmascript" contentStyleType="text/css" height="1053px" preserveAspectRatio="none" style="width:3020px;height:1053px;" version="1.1" viewBox="0 0 3020 1053" width="3020px" zoomAndPan="magnify"><defs><filter height="300%" id="f1nlscn9bb8x7y" width="300%" x="-1" y="-1"><feGaussianBlur result="blurOut" stdDeviation="2.0"/><feColorMatrix in="blurOut" result="blurOut2" type="matrix" values="0 0 0 0 0 0 0 0 0 0 0 0 0 0 0 0 0 0 .4 0"/><feOffset dx="4.0" dy="4.0" in="blurOut2" result="blurOut3"/><feBlend in="SourceGraphic" in2="blurOut3" mode="normal"/></filter></defs><g><!--class App--><rect fill="#FEFECE" filter="url(#f1nlscn9bb8x7y)" height="60.8047" id="App" style="stroke: #A80036; stroke-width: 1.5;" width="147" x="865.5" y="8"/><ellipse cx="922.75" cy="24" fill="#ADD1B2" rx="11" ry="11" style="stroke: #A80036; stroke-width: 1.0;"/><path d="M925.0938,19.6719 L925.2656,19.75 C925.4844,19.4375 925.6875,19.3438 925.9844,19.3438 C926.2813,19.3438 926.5625,19.4844 926.7188,19.75 C926.8125,19.9063 926.8281,20.0313 926.8281,20.4688 L926.8281,21.8906 C926.8281,22.3125 926.7969,22.5 926.6875,22.6563 C926.5156,22.875 926.25,23.0156 925.9844,23.0156 C925.7656,23.0156 925.5313,22.9063 925.3906,22.7656 C925.25,22.6406 925.2188,22.5156 925.1563,22.1094 C925.0625,21.7031 924.8906,21.4844 924.4063,21.2031 C923.9375,20.9531 923.3281,20.7969 922.75,20.7969 C921.0156,20.7969 919.7656,22.1094 919.7656,23.8906 L919.7656,24.9844 C919.7656,26.6875 921.0625,27.7813 923.1094,27.7813 C923.875,27.7813 924.5625,27.6563 924.9844,27.3906 C925.1719,27.2969 925.1719,27.2969 925.625,26.8125 C925.8125,26.625 926.0156,26.5469 926.2344,26.5469 C926.7031,26.5469 927.0938,26.9375 927.0938,27.3906 C927.0938,27.7813 926.7656,28.2344 926.1875,28.6406 C925.4375,29.1875 924.2813,29.4844 923.0625,29.4844 C920.1719,29.4844 918.0625,27.5938 918.0625,25.0156 L918.0625,23.8906 C918.0625,21.1719 920.0625,19.0938 922.6875,19.0938 C923.5625,19.0938 924.1563,19.2344 925.0938,19.6719 Z "/><text fill="#000000" font-family="sans-serif" font-size="12" lengthAdjust="spacingAndGlyphs" textLength="24" x="943.25" y="28.1543">App</text><line style="stroke: #A80036; stroke-width: 1.5;" x1="866.5" x2="1011.5" y1="40" y2="40"/><line style="stroke: #A80036; stroke-width: 1.5;" x1="866.5" x2="1011.5" y1="48" y2="48"/><text fill="#000000" font-family="sans-serif" font-size="11" lengthAdjust="spacingAndGlyphs" textLength="135" x="871.5" y="62.2104">void main(String[] args)</text><!--class Runner--><rect fill="#FEFECE" filter="url(#f1nlscn9bb8x7y)" height="99.2188" id="Runner" style="stroke: #A80036; stroke-width: 1.5;" width="230" x="679" y="154.5"/><ellipse cx="767.25" cy="170.5" fill="#ADD1B2" rx="11" ry="11" style="stroke: #A80036; stroke-width: 1.0;"/><path d="M769.5938,166.1719 L769.7656,166.25 C769.9844,165.9375 770.1875,165.8438 770.4844,165.8438 C770.7813,165.8438 771.0625,165.9844 771.2188,166.25 C771.3125,166.4063 771.3281,166.5313 771.3281,166.9688 L771.3281,168.3906 C771.3281,168.8125 771.2969,169 771.1875,169.1563 C771.0156,169.375 770.75,169.5156 770.4844,169.5156 C770.2656,169.5156 770.0313,169.4063 769.8906,169.2656 C769.75,169.1406 769.7188,169.0156 769.6563,168.6094 C769.5625,168.2031 769.3906,167.9844 768.9063,167.7031 C768.4375,167.4531 767.8281,167.2969 767.25,167.2969 C765.5156,167.2969 764.2656,168.6094 764.2656,170.3906 L764.2656,171.4844 C764.2656,173.1875 765.5625,174.2813 767.6094,174.2813 C768.375,174.2813 769.0625,174.1563 769.4844,173.8906 C769.6719,173.7969 769.6719,173.7969 770.125,173.3125 C770.3125,173.125 770.5156,173.0469 770.7344,173.0469 C771.2031,173.0469 771.5938,173.4375 771.5938,173.8906 C771.5938,174.2813 771.2656,174.7344 770.6875,175.1406 C769.9375,175.6875 768.7813,175.9844 767.5625,175.9844 C764.6719,175.9844 762.5625,174.0938 762.5625,171.5156 L762.5625,170.3906 C762.5625,167.6719 764.5625,165.5938 767.1875,165.5938 C768.0625,165.5938 768.6563,165.7344 769.5938,166.1719 Z "/><text fill="#000000" font-family="sans-serif" font-size="12" lengthAdjust="spacingAndGlyphs" textLength="45" x="787.75" y="174.6543">Runner</text><line style="stroke: #A80036; stroke-width: 1.5;" x1="680" x2="908" y1="186.5" y2="186.5"/><line style="stroke: #A80036; stroke-width: 1.5;" x1="680" x2="908" y1="194.5" y2="194.5"/><text fill="#000000" font-family="sans-serif" font-size="11" lengthAdjust="spacingAndGlyphs" textLength="126" x="685" y="208.7104">void run(String[] args)</text><text fill="#000000" font-family="sans-serif" font-size="11" lengthAdjust="spacingAndGlyphs" textLength="208" x="685" y="221.5151">List&lt;IUMLObject&gt; parse(String path)</text><text fill="#000000" font-family="sans-serif" font-size="11" lengthAdjust="spacingAndGlyphs" textLength="218" x="685" y="234.3198">String build(List&lt;IUMLObject&gt; objects)</text><text fill="#000000" font-family="sans-serif" font-size="11" lengthAdjust="spacingAndGlyphs" textLength="136" x="685" y="247.1245">void display(String UML)</text><!--class IBuilder--><rect fill="#FEFECE" filter="url(#f1nlscn9bb8x7y)" height="60.8047" id="IBuilder" style="stroke: #A80036; stroke-width: 1.5;" width="227" x="361.5" y="339"/><ellipse cx="447.25" cy="355" fill="#B4A7E5" rx="11" ry="11" style="stroke: #A80036; stroke-width: 1.0;"/><path d="M448.2031,351.7813 L448.2031,358.2969 L449.9219,358.2969 C450.375,358.2969 450.5156,358.3281 450.6875,358.4531 C450.9219,358.625 451.0313,358.875 451.0313,359.1563 C451.0313,359.7188 450.6719,360 449.9219,360 L444.7813,360 C444.375,360 444.1719,359.9531 444.0156,359.8281 C443.7969,359.6719 443.6563,359.4063 443.6563,359.1563 C443.6563,358.8594 443.8125,358.5781 444.0625,358.4219 C444.2188,358.3125 444.3438,358.2969 444.7813,358.2969 L446.5,358.2969 L446.5,351.7813 L444.7813,351.7813 C444.3594,351.7813 444.1719,351.75 444.0156,351.6406 C443.7969,351.4688 443.6563,351.2188 443.6563,350.9375 C443.6563,350.6563 443.8125,350.3594 444.0625,350.2031 C444.2188,350.1094 444.3438,350.0938 444.7813,350.0938 L449.9219,350.0938 C450.375,350.0938 450.5156,350.125 450.6875,350.2344 C450.9219,350.4063 451.0313,350.6719 451.0313,350.9375 C451.0313,351.2344 450.8906,351.5156 450.625,351.6719 C450.5,351.75 450.3125,351.7813 449.9219,351.7813 Z "/><text fill="#000000" font-family="sans-serif" font-size="12" font-style="italic" lengthAdjust="spacingAndGlyphs" textLength="47" x="467.75" y="359.1543">IBuilder</text><line style="stroke: #A80036; stroke-width: 1.5;" x1="362.5" x2="587.5" y1="371" y2="371"/><line style="stroke: #A80036; stroke-width: 1.5;" x1="362.5" x2="587.5" y1="379" y2="379"/><text fill="#000000" font-family="sans-serif" font-size="11" font-style="italic" lengthAdjust="spacingAndGlyphs" textLength="215" x="367.5" y="393.2104">String build(List&lt;IUMLObject&gt; objects)</text><!--class PlantUMLBuilder--><rect fill="#FEFECE" filter="url(#f1nlscn9bb8x7y)" height="60.8047" id="PlantUMLBuilder" style="stroke: #A80036; stroke-width: 1.5;" width="230" x="23" y="472.5"/><ellipse cx="83.75" cy="488.5" fill="#ADD1B2" rx="11" ry="11" style="stroke: #A80036; stroke-width: 1.0;"/><path d="M86.0938,484.1719 L86.2656,484.25 C86.4844,483.9375 86.6875,483.8438 86.9844,483.8438 C87.2813,483.8438 87.5625,483.9844 87.7188,484.25 C87.8125,484.4063 87.8281,484.5313 87.8281,484.9688 L87.8281,486.3906 C87.8281,486.8125 87.7969,487 87.6875,487.1563 C87.5156,487.375 87.25,487.5156 86.9844,487.5156 C86.7656,487.5156 86.5313,487.4063 86.3906,487.2656 C86.25,487.1406 86.2188,487.0156 86.1563,486.6094 C86.0625,486.2031 85.8906,485.9844 85.4063,485.7031 C84.9375,485.4531 84.3281,485.2969 83.75,485.2969 C82.0156,485.2969 80.7656,486.6094 80.7656,488.3906 L80.7656,489.4844 C80.7656,491.1875 82.0625,492.2813 84.1094,492.2813 C84.875,492.2813 85.5625,492.1563 85.9844,491.8906 C86.1719,491.7969 86.1719,491.7969 86.625,491.3125 C86.8125,491.125 87.0156,491.0469 87.2344,491.0469 C87.7031,491.0469 88.0938,491.4375 88.0938,491.8906 C88.0938,492.2813 87.7656,492.7344 87.1875,493.1406 C86.4375,493.6875 85.2813,493.9844 84.0625,493.9844 C81.1719,493.9844 79.0625,492.0938 79.0625,489.5156 L79.0625,488.3906 C79.0625,485.6719 81.0625,483.5938 83.6875,483.5938 C84.5625,483.5938 85.1563,483.7344 86.0938,484.1719 Z "/><text fill="#000000" font-family="sans-serif" font-size="12" lengthAdjust="spacingAndGlyphs" textLength="100" x="104.25" y="492.6543">PlantUMLBuilder</text><line style="stroke: #A80036; stroke-width: 1.5;" x1="24" x2="252" y1="504.5" y2="504.5"/><line style="stroke: #A80036; stroke-width: 1.5;" x1="24" x2="252" y1="512.5" y2="512.5"/><text fill="#000000" font-family="sans-serif" font-size="11" lengthAdjust="spacingAndGlyphs" textLength="218" x="29" y="526.7104">String build(List&lt;IUMLObject&gt; objects)</text><!--class PlantSequenceBuilder--><rect fill="#FEFECE" filter="url(#f1nlscn9bb8x7y)" height="60.8047" id="PlantSequenceBuilder" style="stroke: #A80036; stroke-width: 1.5;" width="230" x="288" y="472.5"/><ellipse cx="330" cy="488.5" fill="#ADD1B2" rx="11" ry="11" style="stroke: #A80036; stroke-width: 1.0;"/><path d="M332.3438,484.1719 L332.5156,484.25 C332.7344,483.9375 332.9375,483.8438 333.2344,483.8438 C333.5313,483.8438 333.8125,483.9844 333.9688,484.25 C334.0625,484.4063 334.0781,484.5313 334.0781,484.9688 L334.0781,486.3906 C334.0781,486.8125 334.0469,487 333.9375,487.1563 C333.7656,487.375 333.5,487.5156 333.2344,487.5156 C333.0156,487.5156 332.7813,487.4063 332.6406,487.2656 C332.5,487.1406 332.4688,487.0156 332.4063,486.6094 C332.3125,486.2031 332.1406,485.9844 331.6563,485.7031 C331.1875,485.4531 330.5781,485.2969 330,485.2969 C328.2656,485.2969 327.0156,486.6094 327.0156,488.3906 L327.0156,489.4844 C327.0156,491.1875 328.3125,492.2813 330.3594,492.2813 C331.125,492.2813 331.8125,492.1563 332.2344,491.8906 C332.4219,491.7969 332.4219,491.7969 332.875,491.3125 C333.0625,491.125 333.2656,491.0469 333.4844,491.0469 C333.9531,491.0469 334.3438,491.4375 334.3438,491.8906 C334.3438,492.2813 334.0156,492.7344 333.4375,493.1406 C332.6875,493.6875 331.5313,493.9844 330.3125,493.9844 C327.4219,493.9844 325.3125,492.0938 325.3125,489.5156 L325.3125,488.3906 C325.3125,485.6719 327.3125,483.5938 329.9375,483.5938 C330.8125,483.5938 331.4063,483.7344 332.3438,484.1719 Z "/><text fill="#000000" font-family="sans-serif" font-size="12" lengthAdjust="spacingAndGlyphs" textLength="138" x="350" y="492.6543">PlantSequenceBuilder</text><line style="stroke: #A80036; stroke-width: 1.5;" x1="289" x2="517" y1="504.5" y2="504.5"/><line style="stroke: #A80036; stroke-width: 1.5;" x1="289" x2="517" y1="512.5" y2="512.5"/><text fill="#000000" font-family="sans-serif" font-size="11" lengthAdjust="spacingAndGlyphs" textLength="218" x="294" y="526.7104">String build(List&lt;IUMLObject&gt; objects)</text><!--class IParser--><rect fill="#FEFECE" filter="url(#f1nlscn9bb8x7y)" height="60.8047" id="IParser" style="stroke: #A80036; stroke-width: 1.5;" width="217" x="766.5" y="339"/><ellipse cx="849.25" cy="355" fill="#B4A7E5" rx="11" ry="11" style="stroke: #A80036; stroke-width: 1.0;"/><path d="M850.2031,351.7813 L850.2031,358.2969 L851.9219,358.2969 C852.375,358.2969 852.5156,358.3281 852.6875,358.4531 C852.9219,358.625 853.0313,358.875 853.0313,359.1563 C853.0313,359.7188 852.6719,360 851.9219,360 L846.7813,360 C846.375,360 846.1719,359.9531 846.0156,359.8281 C845.7969,359.6719 845.6563,359.4063 845.6563,359.1563 C845.6563,358.8594 845.8125,358.5781 846.0625,358.4219 C846.2188,358.3125 846.3438,358.2969 846.7813,358.2969 L848.5,358.2969 L848.5,351.7813 L846.7813,351.7813 C846.3594,351.7813 846.1719,351.75 846.0156,351.6406 C845.7969,351.4688 845.6563,351.2188 845.6563,350.9375 C845.6563,350.6563 845.8125,350.3594 846.0625,350.2031 C846.2188,350.1094 846.3438,350.0938 846.7813,350.0938 L851.9219,350.0938 C852.375,350.0938 852.5156,350.125 852.6875,350.2344 C852.9219,350.4063 853.0313,350.6719 853.0313,350.9375 C853.0313,351.2344 852.8906,351.5156 852.625,351.6719 C852.5,351.75 852.3125,351.7813 851.9219,351.7813 Z "/><text fill="#000000" font-family="sans-serif" font-size="12" font-style="italic" lengthAdjust="spacingAndGlyphs" textLength="43" x="869.75" y="359.1543">IParser</text><line style="stroke: #A80036; stroke-width: 1.5;" x1="767.5" x2="982.5" y1="371" y2="371"/><line style="stroke: #A80036; stroke-width: 1.5;" x1="767.5" x2="982.5" y1="379" y2="379"/><text fill="#000000" font-family="sans-serif" font-size="11" font-style="italic" lengthAdjust="spacingAndGlyphs" textLength="205" x="772.5" y="393.2104">List&lt;IUMLObject&gt; parse(String path)</text><!--class MasterParser--><rect fill="#FEFECE" filter="url(#f1nlscn9bb8x7y)" height="73.6094" id="MasterParser" style="stroke: #A80036; stroke-width: 1.5;" width="269" x="740.5" y="466"/><ellipse cx="828.75" cy="482" fill="#ADD1B2" rx="11" ry="11" style="stroke: #A80036; stroke-width: 1.0;"/><path d="M831.0938,477.6719 L831.2656,477.75 C831.4844,477.4375 831.6875,477.3438 831.9844,477.3438 C832.2813,477.3438 832.5625,477.4844 832.7188,477.75 C832.8125,477.9063 832.8281,478.0313 832.8281,478.4688 L832.8281,479.8906 C832.8281,480.3125 832.7969,480.5 832.6875,480.6563 C832.5156,480.875 832.25,481.0156 831.9844,481.0156 C831.7656,481.0156 831.5313,480.9063 831.3906,480.7656 C831.25,480.6406 831.2188,480.5156 831.1563,480.1094 C831.0625,479.7031 830.8906,479.4844 830.4063,479.2031 C829.9375,478.9531 829.3281,478.7969 828.75,478.7969 C827.0156,478.7969 825.7656,480.1094 825.7656,481.8906 L825.7656,482.9844 C825.7656,484.6875 827.0625,485.7813 829.1094,485.7813 C829.875,485.7813 830.5625,485.6563 830.9844,485.3906 C831.1719,485.2969 831.1719,485.2969 831.625,484.8125 C831.8125,484.625 832.0156,484.5469 832.2344,484.5469 C832.7031,484.5469 833.0938,484.9375 833.0938,485.3906 C833.0938,485.7813 832.7656,486.2344 832.1875,486.6406 C831.4375,487.1875 830.2813,487.4844 829.0625,487.4844 C826.1719,487.4844 824.0625,485.5938 824.0625,483.0156 L824.0625,481.8906 C824.0625,479.1719 826.0625,477.0938 828.6875,477.0938 C829.5625,477.0938 830.1563,477.2344 831.0938,477.6719 Z "/><text fill="#000000" font-family="sans-serif" font-size="12" lengthAdjust="spacingAndGlyphs" textLength="84" x="849.25" y="486.1543">MasterParser</text><line style="stroke: #A80036; stroke-width: 1.5;" x1="741.5" x2="1008.5" y1="498" y2="498"/><line style="stroke: #A80036; stroke-width: 1.5;" x1="741.5" x2="1008.5" y1="506" y2="506"/><text fill="#000000" font-family="sans-serif" font-size="11" lengthAdjust="spacingAndGlyphs" textLength="208" x="746.5" y="520.2104">List&lt;IUMLObject&gt; parse(String path)</text><text fill="#000000" font-family="sans-serif" font-size="11" lengthAdjust="spacingAndGlyphs" textLength="257" x="746.5" y="533.0151">void addParseStrategy(IParserStrategy strat)</text><!--class IParserFilter--><rect fill="#FEFECE" filter="url(#f1nlscn9bb8x7y)" height="60.8047" id="IParserFilter" style="stroke: #A80036; stroke-width: 1.5;" width="310" x="1045" y="472.5"/><ellipse cx="1158.75" cy="488.5" fill="#B4A7E5" rx="11" ry="11" style="stroke: #A80036; stroke-width: 1.0;"/><path d="M1159.7031,485.2813 L1159.7031,491.7969 L1161.4219,491.7969 C1161.875,491.7969 1162.0156,491.8281 1162.1875,491.9531 C1162.4219,492.125 1162.5313,492.375 1162.5313,492.6563 C1162.5313,493.2188 1162.1719,493.5 1161.4219,493.5 L1156.2813,493.5 C1155.875,493.5 1155.6719,493.4531 1155.5156,493.3281 C1155.2969,493.1719 1155.1563,492.9063 1155.1563,492.6563 C1155.1563,492.3594 1155.3125,492.0781 1155.5625,491.9219 C1155.7188,491.8125 1155.8438,491.7969 1156.2813,491.7969 L1158,491.7969 L1158,485.2813 L1156.2813,485.2813 C1155.8594,485.2813 1155.6719,485.25 1155.5156,485.1406 C1155.2969,484.9688 1155.1563,484.7188 1155.1563,484.4375 C1155.1563,484.1563 1155.3125,483.8594 1155.5625,483.7031 C1155.7188,483.6094 1155.8438,483.5938 1156.2813,483.5938 L1161.4219,483.5938 C1161.875,483.5938 1162.0156,483.625 1162.1875,483.7344 C1162.4219,483.9063 1162.5313,484.1719 1162.5313,484.4375 C1162.5313,484.7344 1162.3906,485.0156 1162.125,485.1719 C1162,485.25 1161.8125,485.2813 1161.4219,485.2813 Z "/><text fill="#000000" font-family="sans-serif" font-size="12" font-style="italic" lengthAdjust="spacingAndGlyphs" textLength="74" x="1179.25" y="492.6543">IParserFilter</text><line style="stroke: #A80036; stroke-width: 1.5;" x1="1046" x2="1354" y1="504.5" y2="504.5"/><line style="stroke: #A80036; stroke-width: 1.5;" x1="1046" x2="1354" y1="512.5" y2="512.5"/><text fill="#000000" font-family="sans-serif" font-size="11" font-style="italic" lengthAdjust="spacingAndGlyphs" textLength="298" x="1051" y="526.7104">List&lt;IUMLObject&gt; process(List&lt;IUMLObject&gt; objects)</text><!--class NonRecursiveParserFilter--><rect fill="#FEFECE" filter="url(#f1nlscn9bb8x7y)" height="73.6094" id="NonRecursiveParserFilter" style="stroke: #A80036; stroke-width: 1.5;" width="306" x="706" y="606"/><ellipse cx="776.25" cy="622" fill="#ADD1B2" rx="11" ry="11" style="stroke: #A80036; stroke-width: 1.0;"/><path d="M778.5938,617.6719 L778.7656,617.75 C778.9844,617.4375 779.1875,617.3438 779.4844,617.3438 C779.7813,617.3438 780.0625,617.4844 780.2188,617.75 C780.3125,617.9063 780.3281,618.0313 780.3281,618.4688 L780.3281,619.8906 C780.3281,620.3125 780.2969,620.5 780.1875,620.6563 C780.0156,620.875 779.75,621.0156 779.4844,621.0156 C779.2656,621.0156 779.0313,620.9063 778.8906,620.7656 C778.75,620.6406 778.7188,620.5156 778.6563,620.1094 C778.5625,619.7031 778.3906,619.4844 777.9063,619.2031 C777.4375,618.9531 776.8281,618.7969 776.25,618.7969 C774.5156,618.7969 773.2656,620.1094 773.2656,621.8906 L773.2656,622.9844 C773.2656,624.6875 774.5625,625.7813 776.6094,625.7813 C777.375,625.7813 778.0625,625.6563 778.4844,625.3906 C778.6719,625.2969 778.6719,625.2969 779.125,624.8125 C779.3125,624.625 779.5156,624.5469 779.7344,624.5469 C780.2031,624.5469 780.5938,624.9375 780.5938,625.3906 C780.5938,625.7813 780.2656,626.2344 779.6875,626.6406 C778.9375,627.1875 777.7813,627.4844 776.5625,627.4844 C773.6719,627.4844 771.5625,625.5938 771.5625,623.0156 L771.5625,621.8906 C771.5625,619.1719 773.5625,617.0938 776.1875,617.0938 C777.0625,617.0938 777.6563,617.2344 778.5938,617.6719 Z "/><text fill="#000000" font-family="sans-serif" font-size="12" lengthAdjust="spacingAndGlyphs" textLength="157" x="796.75" y="626.1543">NonRecursiveParserFilter</text><line style="stroke: #A80036; stroke-width: 1.5;" x1="707" x2="1011" y1="638" y2="638"/><line style="stroke: #A80036; stroke-width: 1.5;" x1="707" x2="1011" y1="646" y2="646"/><text fill="#000000" font-family="sans-serif" font-size="11" lengthAdjust="spacingAndGlyphs" textLength="294" x="712" y="660.2104">List&lt;IUMLObject&gt; process(List&lt;IUMLObject objects)</text><text fill="#000000" font-family="sans-serif" font-size="11" lengthAdjust="spacingAndGlyphs" textLength="208" x="712" y="673.0151">List&lt;IUMLObject&gt; parse(String path)</text><!--class PrivacyParserFilter--><rect fill="#FEFECE" filter="url(#f1nlscn9bb8x7y)" height="73.6094" id="PrivacyParserFilter" style="stroke: #A80036; stroke-width: 1.5;" width="306" x="1047" y="606"/><ellipse cx="1138.25" cy="622" fill="#ADD1B2" rx="11" ry="11" style="stroke: #A80036; stroke-width: 1.0;"/><path d="M1140.5938,617.6719 L1140.7656,617.75 C1140.9844,617.4375 1141.1875,617.3438 1141.4844,617.3438 C1141.7813,617.3438 1142.0625,617.4844 1142.2188,617.75 C1142.3125,617.9063 1142.3281,618.0313 1142.3281,618.4688 L1142.3281,619.8906 C1142.3281,620.3125 1142.2969,620.5 1142.1875,620.6563 C1142.0156,620.875 1141.75,621.0156 1141.4844,621.0156 C1141.2656,621.0156 1141.0313,620.9063 1140.8906,620.7656 C1140.75,620.6406 1140.7188,620.5156 1140.6563,620.1094 C1140.5625,619.7031 1140.3906,619.4844 1139.9063,619.2031 C1139.4375,618.9531 1138.8281,618.7969 1138.25,618.7969 C1136.5156,618.7969 1135.2656,620.1094 1135.2656,621.8906 L1135.2656,622.9844 C1135.2656,624.6875 1136.5625,625.7813 1138.6094,625.7813 C1139.375,625.7813 1140.0625,625.6563 1140.4844,625.3906 C1140.6719,625.2969 1140.6719,625.2969 1141.125,624.8125 C1141.3125,624.625 1141.5156,624.5469 1141.7344,624.5469 C1142.2031,624.5469 1142.5938,624.9375 1142.5938,625.3906 C1142.5938,625.7813 1142.2656,626.2344 1141.6875,626.6406 C1140.9375,627.1875 1139.7813,627.4844 1138.5625,627.4844 C1135.6719,627.4844 1133.5625,625.5938 1133.5625,623.0156 L1133.5625,621.8906 C1133.5625,619.1719 1135.5625,617.0938 1138.1875,617.0938 C1139.0625,617.0938 1139.6563,617.2344 1140.5938,617.6719 Z "/><text fill="#000000" font-family="sans-serif" font-size="12" lengthAdjust="spacingAndGlyphs" textLength="115" x="1158.75" y="626.1543">PrivacyParserFilter</text><line style="stroke: #A80036; stroke-width: 1.5;" x1="1048" x2="1352" y1="638" y2="638"/><line style="stroke: #A80036; stroke-width: 1.5;" x1="1048" x2="1352" y1="646" y2="646"/><text fill="#000000" font-family="sans-serif" font-size="11" lengthAdjust="spacingAndGlyphs" textLength="294" x="1053" y="660.2104">List&lt;IUMLObject&gt; process(List&lt;IUMLObject objects)</text><text fill="#000000" font-family="sans-serif" font-size="11" lengthAdjust="spacingAndGlyphs" textLength="208" x="1053" y="673.0151">List&lt;IUMLObject&gt; parse(String path)</text><!--class IUMLObject--><rect fill="#FEFECE" filter="url(#f1nlscn9bb8x7y)" height="86.4141" id="IUMLObject" style="stroke: #A80036; stroke-width: 1.5;" width="152" x="553" y="460"/><ellipse cx="590.95" cy="476" fill="#B4A7E5" rx="11" ry="11" style="stroke: #A80036; stroke-width: 1.0;"/><path d="M591.9031,472.7813 L591.9031,479.2969 L593.6219,479.2969 C594.075,479.2969 594.2156,479.3281 594.3875,479.4531 C594.6219,479.625 594.7313,479.875 594.7313,480.1563 C594.7313,480.7188 594.3719,481 593.6219,481 L588.4813,481 C588.075,481 587.8719,480.9531 587.7156,480.8281 C587.4969,480.6719 587.3563,480.4063 587.3563,480.1563 C587.3563,479.8594 587.5125,479.5781 587.7625,479.4219 C587.9188,479.3125 588.0438,479.2969 588.4813,479.2969 L590.2,479.2969 L590.2,472.7813 L588.4813,472.7813 C588.0594,472.7813 587.8719,472.75 587.7156,472.6406 C587.4969,472.4688 587.3563,472.2188 587.3563,471.9375 C587.3563,471.6563 587.5125,471.3594 587.7625,471.2031 C587.9188,471.1094 588.0438,471.0938 588.4813,471.0938 L593.6219,471.0938 C594.075,471.0938 594.2156,471.125 594.3875,471.2344 C594.6219,471.4063 594.7313,471.6719 594.7313,471.9375 C594.7313,472.2344 594.5906,472.5156 594.325,472.6719 C594.2,472.75 594.0125,472.7813 593.6219,472.7813 Z "/><text fill="#000000" font-family="sans-serif" font-size="12" font-style="italic" lengthAdjust="spacingAndGlyphs" textLength="69" x="610.05" y="480.1543">IUMLObject</text><line style="stroke: #A80036; stroke-width: 1.5;" x1="554" x2="704" y1="492" y2="492"/><line style="stroke: #A80036; stroke-width: 1.5;" x1="554" x2="704" y1="500" y2="500"/><text fill="#000000" font-family="sans-serif" font-size="11" font-style="italic" lengthAdjust="spacingAndGlyphs" textLength="79" x="559" y="514.2104">String toUML()</text><text fill="#000000" font-family="sans-serif" font-size="11" font-style="italic" lengthAdjust="spacingAndGlyphs" textLength="95" x="559" y="527.0151">int getModifiers()</text><text fill="#000000" font-family="sans-serif" font-size="11" font-style="italic" lengthAdjust="spacingAndGlyphs" textLength="140" x="559" y="539.8198">SootClass getSootClass()</text><!--class IDisplayer--><rect fill="#FEFECE" filter="url(#f1nlscn9bb8x7y)" height="60.8047" id="IDisplayer" style="stroke: #A80036; stroke-width: 1.5;" width="148" x="1596" y="339"/><ellipse cx="1635.75" cy="355" fill="#B4A7E5" rx="11" ry="11" style="stroke: #A80036; stroke-width: 1.0;"/><path d="M1636.7031,351.7813 L1636.7031,358.2969 L1638.4219,358.2969 C1638.875,358.2969 1639.0156,358.3281 1639.1875,358.4531 C1639.4219,358.625 1639.5313,358.875 1639.5313,359.1563 C1639.5313,359.7188 1639.1719,360 1638.4219,360 L1633.2813,360 C1632.875,360 1632.6719,359.9531 1632.5156,359.8281 C1632.2969,359.6719 1632.1563,359.4063 1632.1563,359.1563 C1632.1563,358.8594 1632.3125,358.5781 1632.5625,358.4219 C1632.7188,358.3125 1632.8438,358.2969 1633.2813,358.2969 L1635,358.2969 L1635,351.7813 L1633.2813,351.7813 C1632.8594,351.7813 1632.6719,351.75 1632.5156,351.6406 C1632.2969,351.4688 1632.1563,351.2188 1632.1563,350.9375 C1632.1563,350.6563 1632.3125,350.3594 1632.5625,350.2031 C1632.7188,350.1094 1632.8438,350.0938 1633.2813,350.0938 L1638.4219,350.0938 C1638.875,350.0938 1639.0156,350.125 1639.1875,350.2344 C1639.4219,350.4063 1639.5313,350.6719 1639.5313,350.9375 C1639.5313,351.2344 1639.3906,351.5156 1639.125,351.6719 C1639,351.75 1638.8125,351.7813 1638.4219,351.7813 Z "/><text fill="#000000" font-family="sans-serif" font-size="12" font-style="italic" lengthAdjust="spacingAndGlyphs" textLength="61" x="1655.25" y="359.1543">IDisplayer</text><line style="stroke: #A80036; stroke-width: 1.5;" x1="1597" x2="1743" y1="371" y2="371"/><line style="stroke: #A80036; stroke-width: 1.5;" x1="1597" x2="1743" y1="379" y2="379"/><text fill="#000000" font-family="sans-serif" font-size="11" font-style="italic" lengthAdjust="spacingAndGlyphs" textLength="136" x="1602" y="393.2104">void display(String UML)</text><!--class PlantDisplayer--><rect fill="#FEFECE" filter="url(#f1nlscn9bb8x7y)" height="60.8047" id="PlantDisplayer" style="stroke: #A80036; stroke-width: 1.5;" width="148" x="2036" y="472.5"/><ellipse cx="2063.15" cy="488.5" fill="#ADD1B2" rx="11" ry="11" style="stroke: #A80036; stroke-width: 1.0;"/><path d="M2065.4938,484.1719 L2065.6656,484.25 C2065.8844,483.9375 2066.0875,483.8438 2066.3844,483.8438 C2066.6813,483.8438 2066.9625,483.9844 2067.1188,484.25 C2067.2125,484.4063 2067.2281,484.5313 2067.2281,484.9688 L2067.2281,486.3906 C2067.2281,486.8125 2067.1969,487 2067.0875,487.1563 C2066.9156,487.375 2066.65,487.5156 2066.3844,487.5156 C2066.1656,487.5156 2065.9313,487.4063 2065.7906,487.2656 C2065.65,487.1406 2065.6188,487.0156 2065.5563,486.6094 C2065.4625,486.2031 2065.2906,485.9844 2064.8063,485.7031 C2064.3375,485.4531 2063.7281,485.2969 2063.15,485.2969 C2061.4156,485.2969 2060.1656,486.6094 2060.1656,488.3906 L2060.1656,489.4844 C2060.1656,491.1875 2061.4625,492.2813 2063.5094,492.2813 C2064.275,492.2813 2064.9625,492.1563 2065.3844,491.8906 C2065.5719,491.7969 2065.5719,491.7969 2066.025,491.3125 C2066.2125,491.125 2066.4156,491.0469 2066.6344,491.0469 C2067.1031,491.0469 2067.4938,491.4375 2067.4938,491.8906 C2067.4938,492.2813 2067.1656,492.7344 2066.5875,493.1406 C2065.8375,493.6875 2064.6813,493.9844 2063.4625,493.9844 C2060.5719,493.9844 2058.4625,492.0938 2058.4625,489.5156 L2058.4625,488.3906 C2058.4625,485.6719 2060.4625,483.5938 2063.0875,483.5938 C2063.9625,483.5938 2064.5563,483.7344 2065.4938,484.1719 Z "/><text fill="#000000" font-family="sans-serif" font-size="12" lengthAdjust="spacingAndGlyphs" textLength="89" x="2079.85" y="492.6543">PlantDisplayer</text><line style="stroke: #A80036; stroke-width: 1.5;" x1="2037" x2="2183" y1="504.5" y2="504.5"/><line style="stroke: #A80036; stroke-width: 1.5;" x1="2037" x2="2183" y1="512.5" y2="512.5"/><text fill="#000000" font-family="sans-serif" font-size="11" lengthAdjust="spacingAndGlyphs" textLength="136" x="2042" y="526.7104">void display(String UML)</text><!--class IParserStrategy--><rect fill="#FEFECE" filter="url(#f1nlscn9bb8x7y)" height="60.8047" id="IParserStrategy" style="stroke: #A80036; stroke-width: 1.5;" width="432" x="239" y="612.5"/><ellipse cx="402.25" cy="628.5" fill="#B4A7E5" rx="11" ry="11" style="stroke: #A80036; stroke-width: 1.0;"/><path d="M403.2031,625.2813 L403.2031,631.7969 L404.9219,631.7969 C405.375,631.7969 405.5156,631.8281 405.6875,631.9531 C405.9219,632.125 406.0313,632.375 406.0313,632.6563 C406.0313,633.2188 405.6719,633.5 404.9219,633.5 L399.7813,633.5 C399.375,633.5 399.1719,633.4531 399.0156,633.3281 C398.7969,633.1719 398.6563,632.9063 398.6563,632.6563 C398.6563,632.3594 398.8125,632.0781 399.0625,631.9219 C399.2188,631.8125 399.3438,631.7969 399.7813,631.7969 L401.5,631.7969 L401.5,625.2813 L399.7813,625.2813 C399.3594,625.2813 399.1719,625.25 399.0156,625.1406 C398.7969,624.9688 398.6563,624.7188 398.6563,624.4375 C398.6563,624.1563 398.8125,623.8594 399.0625,623.7031 C399.2188,623.6094 399.3438,623.5938 399.7813,623.5938 L404.9219,623.5938 C405.375,623.5938 405.5156,623.625 405.6875,623.7344 C405.9219,623.9063 406.0313,624.1719 406.0313,624.4375 C406.0313,624.7344 405.8906,625.0156 405.625,625.1719 C405.5,625.25 405.3125,625.2813 404.9219,625.2813 Z "/><text fill="#000000" font-family="sans-serif" font-size="12" font-style="italic" lengthAdjust="spacingAndGlyphs" textLength="97" x="422.75" y="632.6543">IParserStrategy</text><line style="stroke: #A80036; stroke-width: 1.5;" x1="240" x2="670" y1="644.5" y2="644.5"/><line style="stroke: #A80036; stroke-width: 1.5;" x1="240" x2="670" y1="652.5" y2="652.5"/><text fill="#000000" font-family="sans-serif" font-size="11" lengthAdjust="spacingAndGlyphs" textLength="420" x="245" y="666.7104">List&lt;IUMLObject&gt; parse(SootClass clazz, List&lt;SootClass&gt; dependencies)</text><!--class MethodParserStrategy--><rect fill="#FEFECE" filter="url(#f1nlscn9bb8x7y)" height="60.8047" id="MethodParserStrategy" style="stroke: #A80036; stroke-width: 1.5;" width="432" x="6" y="740"/><ellipse cx="147.25" cy="756" fill="#ADD1B2" rx="11" ry="11" style="stroke: #A80036; stroke-width: 1.0;"/><path d="M149.5938,751.6719 L149.7656,751.75 C149.9844,751.4375 150.1875,751.3438 150.4844,751.3438 C150.7813,751.3438 151.0625,751.4844 151.2188,751.75 C151.3125,751.9063 151.3281,752.0313 151.3281,752.4688 L151.3281,753.8906 C151.3281,754.3125 151.2969,754.5 151.1875,754.6563 C151.0156,754.875 150.75,755.0156 150.4844,755.0156 C150.2656,755.0156 150.0313,754.9063 149.8906,754.7656 C149.75,754.6406 149.7188,754.5156 149.6563,754.1094 C149.5625,753.7031 149.3906,753.4844 148.9063,753.2031 C148.4375,752.9531 147.8281,752.7969 147.25,752.7969 C145.5156,752.7969 144.2656,754.1094 144.2656,755.8906 L144.2656,756.9844 C144.2656,758.6875 145.5625,759.7813 147.6094,759.7813 C148.375,759.7813 149.0625,759.6563 149.4844,759.3906 C149.6719,759.2969 149.6719,759.2969 150.125,758.8125 C150.3125,758.625 150.5156,758.5469 150.7344,758.5469 C151.2031,758.5469 151.5938,758.9375 151.5938,759.3906 C151.5938,759.7813 151.2656,760.2344 150.6875,760.6406 C149.9375,761.1875 148.7813,761.4844 147.5625,761.4844 C144.6719,761.4844 142.5625,759.5938 142.5625,757.0156 L142.5625,755.8906 C142.5625,753.1719 144.5625,751.0938 147.1875,751.0938 C148.0625,751.0938 148.6563,751.2344 149.5938,751.6719 Z "/><text fill="#000000" font-family="sans-serif" font-size="12" lengthAdjust="spacingAndGlyphs" textLength="141" x="167.75" y="760.1543">MethodParserStrategy</text><line style="stroke: #A80036; stroke-width: 1.5;" x1="7" x2="437" y1="772" y2="772"/><line style="stroke: #A80036; stroke-width: 1.5;" x1="7" x2="437" y1="780" y2="780"/><text fill="#000000" font-family="sans-serif" font-size="11" lengthAdjust="spacingAndGlyphs" textLength="420" x="12" y="794.2104">List&lt;IUMLObject&gt; parse(SootClass clazz, List&lt;SootClass&gt; dependencies)</text><!--class SequenceParserStrategy--><rect fill="#FEFECE" filter="url(#f1nlscn9bb8x7y)" height="60.8047" id="SequenceParserStrategy" style="stroke: #A80036; stroke-width: 1.5;" width="432" x="473" y="740"/><ellipse cx="606.25" cy="756" fill="#ADD1B2" rx="11" ry="11" style="stroke: #A80036; stroke-width: 1.0;"/><path d="M608.5938,751.6719 L608.7656,751.75 C608.9844,751.4375 609.1875,751.3438 609.4844,751.3438 C609.7813,751.3438 610.0625,751.4844 610.2188,751.75 C610.3125,751.9063 610.3281,752.0313 610.3281,752.4688 L610.3281,753.8906 C610.3281,754.3125 610.2969,754.5 610.1875,754.6563 C610.0156,754.875 609.75,755.0156 609.4844,755.0156 C609.2656,755.0156 609.0313,754.9063 608.8906,754.7656 C608.75,754.6406 608.7188,754.5156 608.6563,754.1094 C608.5625,753.7031 608.3906,753.4844 607.9063,753.2031 C607.4375,752.9531 606.8281,752.7969 606.25,752.7969 C604.5156,752.7969 603.2656,754.1094 603.2656,755.8906 L603.2656,756.9844 C603.2656,758.6875 604.5625,759.7813 606.6094,759.7813 C607.375,759.7813 608.0625,759.6563 608.4844,759.3906 C608.6719,759.2969 608.6719,759.2969 609.125,758.8125 C609.3125,758.625 609.5156,758.5469 609.7344,758.5469 C610.2031,758.5469 610.5938,758.9375 610.5938,759.3906 C610.5938,759.7813 610.2656,760.2344 609.6875,760.6406 C608.9375,761.1875 607.7813,761.4844 606.5625,761.4844 C603.6719,761.4844 601.5625,759.5938 601.5625,757.0156 L601.5625,755.8906 C601.5625,753.1719 603.5625,751.0938 606.1875,751.0938 C607.0625,751.0938 607.6563,751.2344 608.5938,751.6719 Z "/><text fill="#000000" font-family="sans-serif" font-size="12" lengthAdjust="spacingAndGlyphs" textLength="157" x="626.75" y="760.1543">SequenceParserStrategy</text><line style="stroke: #A80036; stroke-width: 1.5;" x1="474" x2="904" y1="772" y2="772"/><line style="stroke: #A80036; stroke-width: 1.5;" x1="474" x2="904" y1="780" y2="780"/><text fill="#000000" font-family="sans-serif" font-size="11" lengthAdjust="spacingAndGlyphs" textLength="420" x="479" y="794.2104">List&lt;IUMLObject&gt; parse(SootClass clazz, List&lt;SootClass&gt; dependencies)</text><!--class ISDContextResolutionCommand--><rect fill="#FEFECE" filter="url(#f1nlscn9bb8x7y)" height="60.8047" id="ISDContextResolutionCommand" style="stroke: #A80036; stroke-width: 1.5;" width="428" x="475" y="861"/><ellipse cx="586.25" cy="877" fill="#B4A7E5" rx="11" ry="11" style="stroke: #A80036; stroke-width: 1.0;"/><path d="M587.2031,873.7813 L587.2031,880.2969 L588.9219,880.2969 C589.375,880.2969 589.5156,880.3281 589.6875,880.4531 C589.9219,880.625 590.0313,880.875 590.0313,881.1563 C590.0313,881.7188 589.6719,882 588.9219,882 L583.7813,882 C583.375,882 583.1719,881.9531 583.0156,881.8281 C582.7969,881.6719 582.6563,881.4063 582.6563,881.1563 C582.6563,880.8594 582.8125,880.5781 583.0625,880.4219 C583.2188,880.3125 583.3438,880.2969 583.7813,880.2969 L585.5,880.2969 L585.5,873.7813 L583.7813,873.7813 C583.3594,873.7813 583.1719,873.75 583.0156,873.6406 C582.7969,873.4688 582.6563,873.2188 582.6563,872.9375 C582.6563,872.6563 582.8125,872.3594 583.0625,872.2031 C583.2188,872.1094 583.3438,872.0938 583.7813,872.0938 L588.9219,872.0938 C589.375,872.0938 589.5156,872.125 589.6875,872.2344 C589.9219,872.4063 590.0313,872.6719 590.0313,872.9375 C590.0313,873.2344 589.8906,873.5156 589.625,873.6719 C589.5,873.75 589.3125,873.7813 588.9219,873.7813 Z "/><text fill="#000000" font-family="sans-serif" font-size="12" font-style="italic" lengthAdjust="spacingAndGlyphs" textLength="197" x="606.75" y="881.1543">ISDContextResolutionCommand</text><line style="stroke: #A80036; stroke-width: 1.5;" x1="476" x2="902" y1="893" y2="893"/><line style="stroke: #A80036; stroke-width: 1.5;" x1="476" x2="902" y1="901" y2="901"/><text fill="#000000" font-family="sans-serif" font-size="11" lengthAdjust="spacingAndGlyphs" textLength="416" x="481" y="915.2104">List&lt;IUMLObject&gt; resolve(CallGraph, SootMethod, SootClass, Scene, int)</text><!--class FirstContextResolutionCommand--><rect fill="#FEFECE" filter="url(#f1nlscn9bb8x7y)" height="60.8047" id="FirstContextResolutionCommand" style="stroke: #A80036; stroke-width: 1.5;" width="428" x="244" y="982"/><ellipse cx="352.25" cy="998" fill="#ADD1B2" rx="11" ry="11" style="stroke: #A80036; stroke-width: 1.0;"/><path d="M354.5938,993.6719 L354.7656,993.75 C354.9844,993.4375 355.1875,993.3438 355.4844,993.3438 C355.7813,993.3438 356.0625,993.4844 356.2188,993.75 C356.3125,993.9063 356.3281,994.0313 356.3281,994.4688 L356.3281,995.8906 C356.3281,996.3125 356.2969,996.5 356.1875,996.6563 C356.0156,996.875 355.75,997.0156 355.4844,997.0156 C355.2656,997.0156 355.0313,996.9063 354.8906,996.7656 C354.75,996.6406 354.7188,996.5156 354.6563,996.1094 C354.5625,995.7031 354.3906,995.4844 353.9063,995.2031 C353.4375,994.9531 352.8281,994.7969 352.25,994.7969 C350.5156,994.7969 349.2656,996.1094 349.2656,997.8906 L349.2656,998.9844 C349.2656,1000.6875 350.5625,1001.7813 352.6094,1001.7813 C353.375,1001.7813 354.0625,1001.6563 354.4844,1001.3906 C354.6719,1001.2969 354.6719,1001.2969 355.125,1000.8125 C355.3125,1000.625 355.5156,1000.5469 355.7344,1000.5469 C356.2031,1000.5469 356.5938,1000.9375 356.5938,1001.3906 C356.5938,1001.7813 356.2656,1002.2344 355.6875,1002.6406 C354.9375,1003.1875 353.7813,1003.4844 352.5625,1003.4844 C349.6719,1003.4844 347.5625,1001.5938 347.5625,999.0156 L347.5625,997.8906 C347.5625,995.1719 349.5625,993.0938 352.1875,993.0938 C353.0625,993.0938 353.6563,993.2344 354.5938,993.6719 Z "/><text fill="#000000" font-family="sans-serif" font-size="12" lengthAdjust="spacingAndGlyphs" textLength="203" x="372.75" y="1002.1543">FirstContextResolutionCommand</text><line style="stroke: #A80036; stroke-width: 1.5;" x1="245" x2="671" y1="1014" y2="1014"/><line style="stroke: #A80036; stroke-width: 1.5;" x1="245" x2="671" y1="1022" y2="1022"/><text fill="#000000" font-family="sans-serif" font-size="11" lengthAdjust="spacingAndGlyphs" textLength="416" x="250" y="1036.2104">List&lt;IUMLObject&gt; resolve(CallGraph, SootMethod, SootClass, Scene, int)</text><!--class NullContextResolutionCommand--><rect fill="#FEFECE" filter="url(#f1nlscn9bb8x7y)" height="60.8047" id="NullContextResolutionCommand" style="stroke: #A80036; stroke-width: 1.5;" width="428" x="707" y="982"/><ellipse cx="817.25" cy="998" fill="#ADD1B2" rx="11" ry="11" style="stroke: #A80036; stroke-width: 1.0;"/><path d="M819.5938,993.6719 L819.7656,993.75 C819.9844,993.4375 820.1875,993.3438 820.4844,993.3438 C820.7813,993.3438 821.0625,993.4844 821.2188,993.75 C821.3125,993.9063 821.3281,994.0313 821.3281,994.4688 L821.3281,995.8906 C821.3281,996.3125 821.2969,996.5 821.1875,996.6563 C821.0156,996.875 820.75,997.0156 820.4844,997.0156 C820.2656,997.0156 820.0313,996.9063 819.8906,996.7656 C819.75,996.6406 819.7188,996.5156 819.6563,996.1094 C819.5625,995.7031 819.3906,995.4844 818.9063,995.2031 C818.4375,994.9531 817.8281,994.7969 817.25,994.7969 C815.5156,994.7969 814.2656,996.1094 814.2656,997.8906 L814.2656,998.9844 C814.2656,1000.6875 815.5625,1001.7813 817.6094,1001.7813 C818.375,1001.7813 819.0625,1001.6563 819.4844,1001.3906 C819.6719,1001.2969 819.6719,1001.2969 820.125,1000.8125 C820.3125,1000.625 820.5156,1000.5469 820.7344,1000.5469 C821.2031,1000.5469 821.5938,1000.9375 821.5938,1001.3906 C821.5938,1001.7813 821.2656,1002.2344 820.6875,1002.6406 C819.9375,1003.1875 818.7813,1003.4844 817.5625,1003.4844 C814.6719,1003.4844 812.5625,1001.5938 812.5625,999.0156 L812.5625,997.8906 C812.5625,995.1719 814.5625,993.0938 817.1875,993.0938 C818.0625,993.0938 818.6563,993.2344 819.5938,993.6719 Z "/><text fill="#000000" font-family="sans-serif" font-size="12" lengthAdjust="spacingAndGlyphs" textLength="199" x="837.75" y="1002.1543">NullContextResolutionCommand</text><line style="stroke: #A80036; stroke-width: 1.5;" x1="708" x2="1134" y1="1014" y2="1014"/><line style="stroke: #A80036; stroke-width: 1.5;" x1="708" x2="1134" y1="1022" y2="1022"/><text fill="#000000" font-family="sans-serif" font-size="11" lengthAdjust="spacingAndGlyphs" textLength="416" x="713" y="1036.2104">List&lt;IUMLObject&gt; resolve(CallGraph, SootMethod, SootClass, Scene, int)</text><!--class IParserDetector--><rect fill="#FEFECE" filter="url(#f1nlscn9bb8x7y)" height="60.8047" id="IParserDetector" style="stroke: #A80036; stroke-width: 1.5;" width="220" x="1781" y="472.5"/><ellipse cx="1837.75" cy="488.5" fill="#B4A7E5" rx="11" ry="11" style="stroke: #A80036; stroke-width: 1.0;"/><path d="M1838.7031,485.2813 L1838.7031,491.7969 L1840.4219,491.7969 C1840.875,491.7969 1841.0156,491.8281 1841.1875,491.9531 C1841.4219,492.125 1841.5313,492.375 1841.5313,492.6563 C1841.5313,493.2188 1841.1719,493.5 1840.4219,493.5 L1835.2813,493.5 C1834.875,493.5 1834.6719,493.4531 1834.5156,493.3281 C1834.2969,493.1719 1834.1563,492.9063 1834.1563,492.6563 C1834.1563,492.3594 1834.3125,492.0781 1834.5625,491.9219 C1834.7188,491.8125 1834.8438,491.7969 1835.2813,491.7969 L1837,491.7969 L1837,485.2813 L1835.2813,485.2813 C1834.8594,485.2813 1834.6719,485.25 1834.5156,485.1406 C1834.2969,484.9688 1834.1563,484.7188 1834.1563,484.4375 C1834.1563,484.1563 1834.3125,483.8594 1834.5625,483.7031 C1834.7188,483.6094 1834.8438,483.5938 1835.2813,483.5938 L1840.4219,483.5938 C1840.875,483.5938 1841.0156,483.625 1841.1875,483.7344 C1841.4219,483.9063 1841.5313,484.1719 1841.5313,484.4375 C1841.5313,484.7344 1841.3906,485.0156 1841.125,485.1719 C1841,485.25 1840.8125,485.2813 1840.4219,485.2813 Z "/><text fill="#000000" font-family="sans-serif" font-size="12" font-style="italic" lengthAdjust="spacingAndGlyphs" textLength="98" x="1858.25" y="492.6543">IParserDetector</text><line style="stroke: #A80036; stroke-width: 1.5;" x1="1782" x2="2000" y1="504.5" y2="504.5"/><line style="stroke: #A80036; stroke-width: 1.5;" x1="1782" x2="2000" y1="512.5" y2="512.5"/><text fill="#000000" font-family="sans-serif" font-size="11" lengthAdjust="spacingAndGlyphs" textLength="208" x="1787" y="526.7104">List&lt;IUMLObject&gt; parse(String path)</text><!--class SingletonParserDetector--><rect fill="#FEFECE" filter="url(#f1nlscn9bb8x7y)" height="60.8047" id="SingletonParserDetector" style="stroke: #A80036; stroke-width: 1.5;" width="220" x="1388" y="612.5"/><ellipse cx="1417.85" cy="628.5" fill="#ADD1B2" rx="11" ry="11" style="stroke: #A80036; stroke-width: 1.0;"/><path d="M1420.1938,624.1719 L1420.3656,624.25 C1420.5844,623.9375 1420.7875,623.8438 1421.0844,623.8438 C1421.3813,623.8438 1421.6625,623.9844 1421.8188,624.25 C1421.9125,624.4063 1421.9281,624.5313 1421.9281,624.9688 L1421.9281,626.3906 C1421.9281,626.8125 1421.8969,627 1421.7875,627.1563 C1421.6156,627.375 1421.35,627.5156 1421.0844,627.5156 C1420.8656,627.5156 1420.6313,627.4063 1420.4906,627.2656 C1420.35,627.1406 1420.3188,627.0156 1420.2563,626.6094 C1420.1625,626.2031 1419.9906,625.9844 1419.5063,625.7031 C1419.0375,625.4531 1418.4281,625.2969 1417.85,625.2969 C1416.1156,625.2969 1414.8656,626.6094 1414.8656,628.3906 L1414.8656,629.4844 C1414.8656,631.1875 1416.1625,632.2813 1418.2094,632.2813 C1418.975,632.2813 1419.6625,632.1563 1420.0844,631.8906 C1420.2719,631.7969 1420.2719,631.7969 1420.725,631.3125 C1420.9125,631.125 1421.1156,631.0469 1421.3344,631.0469 C1421.8031,631.0469 1422.1938,631.4375 1422.1938,631.8906 C1422.1938,632.2813 1421.8656,632.7344 1421.2875,633.1406 C1420.5375,633.6875 1419.3813,633.9844 1418.1625,633.9844 C1415.2719,633.9844 1413.1625,632.0938 1413.1625,629.5156 L1413.1625,628.3906 C1413.1625,625.6719 1415.1625,623.5938 1417.7875,623.5938 C1418.6625,623.5938 1419.2563,623.7344 1420.1938,624.1719 Z "/><text fill="#000000" font-family="sans-serif" font-size="12" lengthAdjust="spacingAndGlyphs" textLength="155" x="1435.15" y="632.6543">SingletonParserDetector</text><line style="stroke: #A80036; stroke-width: 1.5;" x1="1389" x2="1607" y1="644.5" y2="644.5"/><line style="stroke: #A80036; stroke-width: 1.5;" x1="1389" x2="1607" y1="652.5" y2="652.5"/><text fill="#000000" font-family="sans-serif" font-size="11" lengthAdjust="spacingAndGlyphs" textLength="208" x="1394" y="666.7104">List&lt;IUMLObject&gt; parse(String path)</text><!--class AdapterParserDetector--><rect fill="#FEFECE" filter="url(#f1nlscn9bb8x7y)" height="60.8047" id="AdapterParserDetector" style="stroke: #A80036; stroke-width: 1.5;" width="220" x="1643" y="612.5"/><ellipse cx="1676.9" cy="628.5" fill="#ADD1B2" rx="11" ry="11" style="stroke: #A80036; stroke-width: 1.0;"/><path d="M1679.2438,624.1719 L1679.4156,624.25 C1679.6344,623.9375 1679.8375,623.8438 1680.1344,623.8438 C1680.4313,623.8438 1680.7125,623.9844 1680.8688,624.25 C1680.9625,624.4063 1680.9781,624.5313 1680.9781,624.9688 L1680.9781,626.3906 C1680.9781,626.8125 1680.9469,627 1680.8375,627.1563 C1680.6656,627.375 1680.4,627.5156 1680.1344,627.5156 C1679.9156,627.5156 1679.6813,627.4063 1679.5406,627.2656 C1679.4,627.1406 1679.3688,627.0156 1679.3063,626.6094 C1679.2125,626.2031 1679.0406,625.9844 1678.5563,625.7031 C1678.0875,625.4531 1677.4781,625.2969 1676.9,625.2969 C1675.1656,625.2969 1673.9156,626.6094 1673.9156,628.3906 L1673.9156,629.4844 C1673.9156,631.1875 1675.2125,632.2813 1677.2594,632.2813 C1678.025,632.2813 1678.7125,632.1563 1679.1344,631.8906 C1679.3219,631.7969 1679.3219,631.7969 1679.775,631.3125 C1679.9625,631.125 1680.1656,631.0469 1680.3844,631.0469 C1680.8531,631.0469 1681.2438,631.4375 1681.2438,631.8906 C1681.2438,632.2813 1680.9156,632.7344 1680.3375,633.1406 C1679.5875,633.6875 1678.4313,633.9844 1677.2125,633.9844 C1674.3219,633.9844 1672.2125,632.0938 1672.2125,629.5156 L1672.2125,628.3906 C1672.2125,625.6719 1674.2125,623.5938 1676.8375,623.5938 C1677.7125,623.5938 1678.3063,623.7344 1679.2438,624.1719 Z "/><text fill="#000000" font-family="sans-serif" font-size="12" lengthAdjust="spacingAndGlyphs" textLength="146" x="1695.1" y="632.6543">AdapterParserDetector</text><line style="stroke: #A80036; stroke-width: 1.5;" x1="1644" x2="1862" y1="644.5" y2="644.5"/><line style="stroke: #A80036; stroke-width: 1.5;" x1="1644" x2="1862" y1="652.5" y2="652.5"/><text fill="#000000" font-family="sans-serif" font-size="11" lengthAdjust="spacingAndGlyphs" textLength="208" x="1649" y="666.7104">List&lt;IUMLObject&gt; parse(String path)</text><!--class DependencyInversionParserDetector--><rect fill="#FEFECE" filter="url(#f1nlscn9bb8x7y)" height="60.8047" id="DependencyInversionParserDetector" style="stroke: #A80036; stroke-width: 1.5;" width="262" x="1898" y="612.5"/><ellipse cx="1913" cy="628.5" fill="#ADD1B2" rx="11" ry="11" style="stroke: #A80036; stroke-width: 1.0;"/><path d="M1915.3438,624.1719 L1915.5156,624.25 C1915.7344,623.9375 1915.9375,623.8438 1916.2344,623.8438 C1916.5313,623.8438 1916.8125,623.9844 1916.9688,624.25 C1917.0625,624.4063 1917.0781,624.5313 1917.0781,624.9688 L1917.0781,626.3906 C1917.0781,626.8125 1917.0469,627 1916.9375,627.1563 C1916.7656,627.375 1916.5,627.5156 1916.2344,627.5156 C1916.0156,627.5156 1915.7813,627.4063 1915.6406,627.2656 C1915.5,627.1406 1915.4688,627.0156 1915.4063,626.6094 C1915.3125,626.2031 1915.1406,625.9844 1914.6563,625.7031 C1914.1875,625.4531 1913.5781,625.2969 1913,625.2969 C1911.2656,625.2969 1910.0156,626.6094 1910.0156,628.3906 L1910.0156,629.4844 C1910.0156,631.1875 1911.3125,632.2813 1913.3594,632.2813 C1914.125,632.2813 1914.8125,632.1563 1915.2344,631.8906 C1915.4219,631.7969 1915.4219,631.7969 1915.875,631.3125 C1916.0625,631.125 1916.2656,631.0469 1916.4844,631.0469 C1916.9531,631.0469 1917.3438,631.4375 1917.3438,631.8906 C1917.3438,632.2813 1917.0156,632.7344 1916.4375,633.1406 C1915.6875,633.6875 1914.5313,633.9844 1913.3125,633.9844 C1910.4219,633.9844 1908.3125,632.0938 1908.3125,629.5156 L1908.3125,628.3906 C1908.3125,625.6719 1910.3125,623.5938 1912.9375,623.5938 C1913.8125,623.5938 1914.4063,623.7344 1915.3438,624.1719 Z "/><text fill="#000000" font-family="sans-serif" font-size="12" lengthAdjust="spacingAndGlyphs" textLength="230" x="1927" y="632.6543">DependencyInversionParserDetector</text><line style="stroke: #A80036; stroke-width: 1.5;" x1="1899" x2="2159" y1="644.5" y2="644.5"/><line style="stroke: #A80036; stroke-width: 1.5;" x1="1899" x2="2159" y1="652.5" y2="652.5"/><text fill="#000000" font-family="sans-serif" font-size="11" lengthAdjust="spacingAndGlyphs" textLength="208" x="1904" y="666.7104">List&lt;IUMLObject&gt; parse(String path)</text><!--class DecoratorParserDetector--><rect fill="#FEFECE" filter="url(#f1nlscn9bb8x7y)" height="60.8047" id="DecoratorParserDetector" style="stroke: #A80036; stroke-width: 1.5;" width="220" x="2195" y="612.5"/><ellipse cx="2223.05" cy="628.5" fill="#ADD1B2" rx="11" ry="11" style="stroke: #A80036; stroke-width: 1.0;"/><path d="M2225.3938,624.1719 L2225.5656,624.25 C2225.7844,623.9375 2225.9875,623.8438 2226.2844,623.8438 C2226.5813,623.8438 2226.8625,623.9844 2227.0188,624.25 C2227.1125,624.4063 2227.1281,624.5313 2227.1281,624.9688 L2227.1281,626.3906 C2227.1281,626.8125 2227.0969,627 2226.9875,627.1563 C2226.8156,627.375 2226.55,627.5156 2226.2844,627.5156 C2226.0656,627.5156 2225.8313,627.4063 2225.6906,627.2656 C2225.55,627.1406 2225.5188,627.0156 2225.4563,626.6094 C2225.3625,626.2031 2225.1906,625.9844 2224.7063,625.7031 C2224.2375,625.4531 2223.6281,625.2969 2223.05,625.2969 C2221.3156,625.2969 2220.0656,626.6094 2220.0656,628.3906 L2220.0656,629.4844 C2220.0656,631.1875 2221.3625,632.2813 2223.4094,632.2813 C2224.175,632.2813 2224.8625,632.1563 2225.2844,631.8906 C2225.4719,631.7969 2225.4719,631.7969 2225.925,631.3125 C2226.1125,631.125 2226.3156,631.0469 2226.5344,631.0469 C2227.0031,631.0469 2227.3938,631.4375 2227.3938,631.8906 C2227.3938,632.2813 2227.0656,632.7344 2226.4875,633.1406 C2225.7375,633.6875 2224.5813,633.9844 2223.3625,633.9844 C2220.4719,633.9844 2218.3625,632.0938 2218.3625,629.5156 L2218.3625,628.3906 C2218.3625,625.6719 2220.3625,623.5938 2222.9875,623.5938 C2223.8625,623.5938 2224.4563,623.7344 2225.3938,624.1719 Z "/><text fill="#000000" font-family="sans-serif" font-size="12" lengthAdjust="spacingAndGlyphs" textLength="159" x="2239.95" y="632.6543">DecoratorParserDetector</text><line style="stroke: #A80036; stroke-width: 1.5;" x1="2196" x2="2414" y1="644.5" y2="644.5"/><line style="stroke: #A80036; stroke-width: 1.5;" x1="2196" x2="2414" y1="652.5" y2="652.5"/><text fill="#000000" font-family="sans-serif" font-size="11" lengthAdjust="spacingAndGlyphs" textLength="208" x="2201" y="666.7104">List&lt;IUMLObject&gt; parse(String path)</text><!--class BadDecoratorParserDetector--><rect fill="#FEFECE" filter="url(#f1nlscn9bb8x7y)" height="60.8047" id="BadDecoratorParserDetector" style="stroke: #A80036; stroke-width: 1.5;" width="220" x="2450" y="612.5"/><ellipse cx="2467.25" cy="628.5" fill="#ADD1B2" rx="11" ry="11" style="stroke: #A80036; stroke-width: 1.0;"/><path d="M2469.5938,624.1719 L2469.7656,624.25 C2469.9844,623.9375 2470.1875,623.8438 2470.4844,623.8438 C2470.7813,623.8438 2471.0625,623.9844 2471.2188,624.25 C2471.3125,624.4063 2471.3281,624.5313 2471.3281,624.9688 L2471.3281,626.3906 C2471.3281,626.8125 2471.2969,627 2471.1875,627.1563 C2471.0156,627.375 2470.75,627.5156 2470.4844,627.5156 C2470.2656,627.5156 2470.0313,627.4063 2469.8906,627.2656 C2469.75,627.1406 2469.7188,627.0156 2469.6563,626.6094 C2469.5625,626.2031 2469.3906,625.9844 2468.9063,625.7031 C2468.4375,625.4531 2467.8281,625.2969 2467.25,625.2969 C2465.5156,625.2969 2464.2656,626.6094 2464.2656,628.3906 L2464.2656,629.4844 C2464.2656,631.1875 2465.5625,632.2813 2467.6094,632.2813 C2468.375,632.2813 2469.0625,632.1563 2469.4844,631.8906 C2469.6719,631.7969 2469.6719,631.7969 2470.125,631.3125 C2470.3125,631.125 2470.5156,631.0469 2470.7344,631.0469 C2471.2031,631.0469 2471.5938,631.4375 2471.5938,631.8906 C2471.5938,632.2813 2471.2656,632.7344 2470.6875,633.1406 C2469.9375,633.6875 2468.7813,633.9844 2467.5625,633.9844 C2464.6719,633.9844 2462.5625,632.0938 2462.5625,629.5156 L2462.5625,628.3906 C2462.5625,625.6719 2464.5625,623.5938 2467.1875,623.5938 C2468.0625,623.5938 2468.6563,623.7344 2469.5938,624.1719 Z "/><text fill="#000000" font-family="sans-serif" font-size="12" lengthAdjust="spacingAndGlyphs" textLength="183" x="2481.75" y="632.6543">BadDecoratorParserDetector</text><line style="stroke: #A80036; stroke-width: 1.5;" x1="2451" x2="2669" y1="644.5" y2="644.5"/><line style="stroke: #A80036; stroke-width: 1.5;" x1="2451" x2="2669" y1="652.5" y2="652.5"/><text fill="#000000" font-family="sans-serif" font-size="11" lengthAdjust="spacingAndGlyphs" textLength="208" x="2456" y="666.7104">List&lt;IUMLObject&gt; parse(String path)</text><!--class CompositionOverInheritenceParserDetector--><rect fill="#FEFECE" filter="url(#f1nlscn9bb8x7y)" height="60.8047" id="CompositionOverInheritenceParserDetector" style="stroke: #A80036; stroke-width: 1.5;" width="304" x="2705" y="612.5"/><ellipse cx="2720" cy="628.5" fill="#ADD1B2" rx="11" ry="11" style="stroke: #A80036; stroke-width: 1.0;"/><path d="M2722.3438,624.1719 L2722.5156,624.25 C2722.7344,623.9375 2722.9375,623.8438 2723.2344,623.8438 C2723.5313,623.8438 2723.8125,623.9844 2723.9688,624.25 C2724.0625,624.4063 2724.0781,624.5313 2724.0781,624.9688 L2724.0781,626.3906 C2724.0781,626.8125 2724.0469,627 2723.9375,627.1563 C2723.7656,627.375 2723.5,627.5156 2723.2344,627.5156 C2723.0156,627.5156 2722.7813,627.4063 2722.6406,627.2656 C2722.5,627.1406 2722.4688,627.0156 2722.4063,626.6094 C2722.3125,626.2031 2722.1406,625.9844 2721.6563,625.7031 C2721.1875,625.4531 2720.5781,625.2969 2720,625.2969 C2718.2656,625.2969 2717.0156,626.6094 2717.0156,628.3906 L2717.0156,629.4844 C2717.0156,631.1875 2718.3125,632.2813 2720.3594,632.2813 C2721.125,632.2813 2721.8125,632.1563 2722.2344,631.8906 C2722.4219,631.7969 2722.4219,631.7969 2722.875,631.3125 C2723.0625,631.125 2723.2656,631.0469 2723.4844,631.0469 C2723.9531,631.0469 2724.3438,631.4375 2724.3438,631.8906 C2724.3438,632.2813 2724.0156,632.7344 2723.4375,633.1406 C2722.6875,633.6875 2721.5313,633.9844 2720.3125,633.9844 C2717.4219,633.9844 2715.3125,632.0938 2715.3125,629.5156 L2715.3125,628.3906 C2715.3125,625.6719 2717.3125,623.5938 2719.9375,623.5938 C2720.8125,623.5938 2721.4063,623.7344 2722.3438,624.1719 Z "/><text fill="#000000" font-family="sans-serif" font-size="12" lengthAdjust="spacingAndGlyphs" textLength="272" x="2734" y="632.6543">CompositionOverInheritenceParserDetector</text><line style="stroke: #A80036; stroke-width: 1.5;" x1="2706" x2="3008" y1="644.5" y2="644.5"/><line style="stroke: #A80036; stroke-width: 1.5;" x1="2706" x2="3008" y1="652.5" y2="652.5"/><text fill="#000000" font-family="sans-serif" font-size="11" lengthAdjust="spacingAndGlyphs" textLength="208" x="2711" y="666.7104">List&lt;IUMLObject&gt; parse(String path)</text><!--class Configuration--><rect fill="#FEFECE" filter="url(#f1nlscn9bb8x7y)" height="150.4375" id="Configuration" style="stroke: #A80036; stroke-width: 1.5;" width="281" x="944.5" y="129"/><ellipse cx="1038.75" cy="145" fill="#ADD1B2" rx="11" ry="11" style="stroke: #A80036; stroke-width: 1.0;"/><path d="M1041.0938,140.6719 L1041.2656,140.75 C1041.4844,140.4375 1041.6875,140.3438 1041.9844,140.3438 C1042.2813,140.3438 1042.5625,140.4844 1042.7188,140.75 C1042.8125,140.9063 1042.8281,141.0313 1042.8281,141.4688 L1042.8281,142.8906 C1042.8281,143.3125 1042.7969,143.5 1042.6875,143.6563 C1042.5156,143.875 1042.25,144.0156 1041.9844,144.0156 C1041.7656,144.0156 1041.5313,143.9063 1041.3906,143.7656 C1041.25,143.6406 1041.2188,143.5156 1041.1563,143.1094 C1041.0625,142.7031 1040.8906,142.4844 1040.4063,142.2031 C1039.9375,141.9531 1039.3281,141.7969 1038.75,141.7969 C1037.0156,141.7969 1035.7656,143.1094 1035.7656,144.8906 L1035.7656,145.9844 C1035.7656,147.6875 1037.0625,148.7813 1039.1094,148.7813 C1039.875,148.7813 1040.5625,148.6563 1040.9844,148.3906 C1041.1719,148.2969 1041.1719,148.2969 1041.625,147.8125 C1041.8125,147.625 1042.0156,147.5469 1042.2344,147.5469 C1042.7031,147.5469 1043.0938,147.9375 1043.0938,148.3906 C1043.0938,148.7813 1042.7656,149.2344 1042.1875,149.6406 C1041.4375,150.1875 1040.2813,150.4844 1039.0625,150.4844 C1036.1719,150.4844 1034.0625,148.5938 1034.0625,146.0156 L1034.0625,144.8906 C1034.0625,142.1719 1036.0625,140.0938 1038.6875,140.0938 C1039.5625,140.0938 1040.1563,140.2344 1041.0938,140.6719 Z "/><text fill="#000000" font-family="sans-serif" font-size="12" lengthAdjust="spacingAndGlyphs" textLength="84" x="1059.25" y="149.1543">Configuration</text><line style="stroke: #A80036; stroke-width: 1.5;" x1="945.5" x2="1224.5" y1="161" y2="161"/><text fill="#000000" font-family="sans-serif" font-size="11" lengthAdjust="spacingAndGlyphs" textLength="269" x="950.5" y="175.2104">private Map&lt;String, List&lt;String&gt;&gt; parameters</text><line style="stroke: #A80036; stroke-width: 1.5;" x1="945.5" x2="1224.5" y1="181.8047" y2="181.8047"/><text fill="#000000" font-family="sans-serif" font-size="11" lengthAdjust="spacingAndGlyphs" textLength="211" x="950.5" y="196.0151">private void parseSettingsFile(String)</text><text fill="#000000" font-family="sans-serif" font-size="11" lengthAdjust="spacingAndGlyphs" textLength="185" x="950.5" y="208.8198">public List&lt;String&gt; getClasses()</text><text fill="#000000" font-family="sans-serif" font-size="11" lengthAdjust="spacingAndGlyphs" textLength="186" x="950.5" y="221.6245">public List&lt;String&gt; getBuilders()</text><text fill="#000000" font-family="sans-serif" font-size="11" lengthAdjust="spacingAndGlyphs" textLength="199" x="950.5" y="234.4292">public List&lt;String&gt; getDisplayers()</text><text fill="#000000" font-family="sans-serif" font-size="11" lengthAdjust="spacingAndGlyphs" textLength="174" x="950.5" y="247.2339">public List&lt;String&gt; getFilters()</text><text fill="#000000" font-family="sans-serif" font-size="11" lengthAdjust="spacingAndGlyphs" textLength="198" x="950.5" y="260.0386">public List&lt;String&gt; getStrategies()</text><text fill="#000000" font-family="sans-serif" font-size="11" lengthAdjust="spacingAndGlyphs" textLength="164" x="950.5" y="272.8433">public List&lt;String&gt; getPath()</text><!--link IBuilder to PlantUMLBuilder--><path d="M380.543,407.358 C327.818,427.931 263.02,453.216 213.668,472.474 " fill="none" id="IBuilder-PlantUMLBuilder" style="stroke: #A80036; stroke-width: 1.0; stroke-dasharray: 7.0,7.0;"/><polygon fill="none" points="378.194,400.76,399.371,400.011,383.283,413.803,378.194,400.76" style="stroke: #A80036; stroke-width: 1.0;"/><!--link IBuilder to PlantSequenceBuilder--><path d="M449.21,417.602 C439.259,435.778 428.172,456.026 419.353,472.132 " fill="none" id="IBuilder-PlantSequenceBuilder" style="stroke: #A80036; stroke-width: 1.0; stroke-dasharray: 7.0,7.0;"/><polygon fill="none" points="443.097,414.192,458.842,400.011,455.377,420.916,443.097,414.192" style="stroke: #A80036; stroke-width: 1.0;"/><!--link IParser to MasterParser--><path d="M875,420.16 C875,435.233 875,451.508 875,465.545 " fill="none" id="IParser-MasterParser" style="stroke: #A80036; stroke-width: 1.0; stroke-dasharray: 7.0,7.0;"/><polygon fill="none" points="868,420.011,875,400.011,882,420.011,868,420.011" style="stroke: #A80036; stroke-width: 1.0;"/><!--link IParser to IParserFilter--><path d="M966.763,407.629 C1017.49,428.153 1079.64,453.301 1127.03,472.474 " fill="none" id="IParser-IParserFilter" style="stroke: #A80036; stroke-width: 1.0;"/><polygon fill="none" points="963.851,414.002,947.936,400.011,969.102,401.024,963.851,414.002" style="stroke: #A80036; stroke-width: 1.0;"/><!--link IParserFilter to NonRecursiveParserFilter--><path d="M1108.07,541.204 C1058.39,561.308 997.324,586.021 948.092,605.945 " fill="none" id="IParserFilter-NonRecursiveParserFilter" style="stroke: #A80036; stroke-width: 1.0; stroke-dasharray: 7.0,7.0;"/><polygon fill="none" points="1105.68,534.618,1126.85,533.604,1110.93,547.596,1105.68,534.618" style="stroke: #A80036; stroke-width: 1.0;"/><!--link IParserFilter to PrivacyParserFilter--><path d="M1200,553.762 C1200,570.969 1200,589.911 1200,605.819 " fill="none" id="IParserFilter-PrivacyParserFilter" style="stroke: #A80036; stroke-width: 1.0; stroke-dasharray: 7.0,7.0;"/><polygon fill="none" points="1193,553.604,1200,533.604,1207,553.604,1193,553.604" style="stroke: #A80036; stroke-width: 1.0;"/><!--link IDisplayer to PlantDisplayer--><path d="M1763.73,389.683 C1834.79,405.387 1934.34,429.887 2019,460 C2029.16,463.615 2039.74,467.943 2049.94,472.426 " fill="none" id="IDisplayer-PlantDisplayer" style="stroke: #A80036; stroke-width: 1.0; stroke-dasharray: 7.0,7.0;"/><polygon fill="none" points="1762.07,396.486,1744.02,385.391,1765.05,382.806,1762.07,396.486" style="stroke: #A80036; stroke-width: 1.0;"/><!--link IBuilder to IUMLObject--><path d="M519.644,408.621 C538.442,424.673 560.385,443.41 579.66,459.869 " fill="none" id="IBuilder-IUMLObject" style="stroke: #A80036; stroke-width: 1.0;"/><polygon fill="#A80036" points="509.561,400.011,511.5264,406.9491,518.6867,407.8034,516.7213,400.8653,509.561,400.011" style="stroke: #A80036; stroke-width: 1.0;"/><!--link Runner to IUMLObject--><path d="M760.524,265.258 C728.356,323.159 680.585,409.147 652.338,459.992 " fill="none" id="Runner-IUMLObject" style="stroke: #A80036; stroke-width: 1.0;"/><polygon fill="#A80036" points="766.938,253.711,760.5272,257.0127,761.1092,264.2003,767.52,260.8986,766.938,253.711" style="stroke: #A80036; stroke-width: 1.0;"/><!--link Runner to IDisplayer--><path d="M881.147,259.681 C896.014,267.185 911.63,274.012 927,279 C1162.73,355.502 1459.68,367.688 1595.74,368.931 " fill="none" id="Runner-IDisplayer" style="stroke: #A80036; stroke-width: 1.0;"/><polygon fill="#A80036" points="869.403,253.54,872.8669,259.8647,880.0373,259.0998,876.5734,252.7751,869.403,253.54" style="stroke: #A80036; stroke-width: 1.0;"/><!--link Runner to IParser--><path d="M823.856,265.264 C836.276,290.335 850.134,318.307 860.288,338.804 " fill="none" id="Runner-IParser" style="stroke: #A80036; stroke-width: 1.0;"/><polygon fill="#A80036" points="818.083,253.613,817.1615,260.765,823.4089,264.3664,824.3304,257.2144,818.083,253.613" style="stroke: #A80036; stroke-width: 1.0;"/><!--link IParser to IUMLObject--><path d="M807.928,406.354 C776.094,423.37 737.911,443.781 705.008,461.37 " fill="none" id="IParser-IUMLObject" style="stroke: #A80036; stroke-width: 1.0;"/><polygon fill="#A80036" points="819.793,400.011,812.6158,399.3121,809.2102,405.6683,816.3874,406.3672,819.793,400.011" style="stroke: #A80036; stroke-width: 1.0;"/><!--link Runner to IBuilder--><path d="M687.273,259.702 C635.736,286.116 575.916,316.777 532.939,338.804 " fill="none" id="Runner-IBuilder" style="stroke: #A80036; stroke-width: 1.0;"/><polygon fill="#A80036" points="699.153,253.613,691.989,252.7904,688.4742,259.0869,695.6382,259.9095,699.153,253.613" style="stroke: #A80036; stroke-width: 1.0;"/><!--link App to Runner--><path d="M903.913,79.063 C883.816,101.724 858.436,130.343 837.129,154.368 " fill="none" id="App-Runner" style="stroke: #A80036; stroke-width: 1.0;"/><polygon fill="#A80036" points="912.742,69.109,905.7682,70.9438,904.7796,78.0868,911.7534,76.252,912.742,69.109" style="stroke: #A80036; stroke-width: 1.0;"/><!--link IParserStrategy to MethodParserStrategy--><path d="M382.373,683.119 C348.333,701.454 308.44,722.941 276.957,739.899 " fill="none" id="IParserStrategy-MethodParserStrategy" style="stroke: #A80036; stroke-width: 1.0; stroke-dasharray: 7.0,7.0;"/><polygon fill="none" points="379.15,676.904,400.077,673.583,385.789,689.23,379.15,676.904" style="stroke: #A80036; stroke-width: 1.0;"/><!--link IParserStrategy to SequenceParserStrategy--><path d="M527.938,683.119 C562.125,701.454 602.189,722.941 633.807,739.899 " fill="none" id="IParserStrategy-SequenceParserStrategy" style="stroke: #A80036; stroke-width: 1.0; stroke-dasharray: 7.0,7.0;"/><polygon fill="none" points="524.475,689.204,510.158,673.583,531.092,676.867,524.475,689.204" style="stroke: #A80036; stroke-width: 1.0;"/><!--link MasterParser to IParserStrategy--><path d="M765.199,540.078 C698.398,562.026 613.931,589.78 550.011,610.782 " fill="none" id="MasterParser-IParserStrategy" style="stroke: #A80036; stroke-width: 1.0;"/><polygon fill="#A80036" points="545.058,612.409,554.857,613.3984,549.8079,610.8476,552.3588,605.7985,545.058,612.409" style="stroke: #A80036; stroke-width: 1.0;"/><!--link ISDContextResolutionCommand to FirstContextResolutionCommand--><path d="M613.465,931.412 C581.606,947.8241 545.119,966.6204 515.503,981.8773 " fill="none" id="ISDContextResolutionCommand-FirstContextResolutionCommand" style="stroke: #A80036; stroke-width: 1.0; stroke-dasharray: 7.0,7.0;"/><polygon fill="none" points="610.617,925.005,631.602,922.069,617.028,937.451,610.617,925.005" style="stroke: #A80036; stroke-width: 1.0;"/><!--link ISDContextResolutionCommand to NullContextResolutionCommand--><path d="M764.862,931.412 C796.859,947.8241 833.504,966.6204 863.248,981.8773 " fill="none" id="ISDContextResolutionCommand-NullContextResolutionCommand" style="stroke: #A80036; stroke-width: 1.0; stroke-dasharray: 7.0,7.0;"/><polygon fill="none" points="761.247,937.425,746.646,922.069,767.637,924.968,761.247,937.425" style="stroke: #A80036; stroke-width: 1.0;"/><!--link SequenceParserStrategy to ISDContextResolutionCommand--><path d="M689,814.228 C689,829.638 689,846.683 689,860.745 " fill="none" id="SequenceParserStrategy-ISDContextResolutionCommand" style="stroke: #A80036; stroke-width: 1.0;"/><polygon fill="#A80036" points="689,801.222,685,807.222,689,813.222,693,807.222,689,801.222" style="stroke: #A80036; stroke-width: 1.0;"/><!--link IParser to IParserDetector--><path d="M1003.816,387.173 C1205.27,413.246 1591.37,463.219 1780.75,487.73 " fill="none" id="IParser-IParserDetector" style="stroke: #A80036; stroke-width: 1.0;"/><polygon fill="none" points="1002.666,394.082,983.73,384.573,1004.463,380.198,1002.666,394.082" style="stroke: #A80036; stroke-width: 1.0;"/><!--link IParserDetector to SingletonParserDetector--><path d="M1787.41,540.376 C1723.37,562.863 1642.23,591.355 1582.17,612.444 " fill="none" id="IParserDetector-SingletonParserDetector" style="stroke: #A80036; stroke-width: 1.0; stroke-dasharray: 7.0,7.0;"/><polygon fill="none" points="1785.5,533.626,1806.69,533.604,1790.14,546.835,1785.5,533.626" style="stroke: #A80036; stroke-width: 1.0;"/><!--link IParserDetector to AdapterParserDetector--><path d="M1847.16,547.837 C1826.08,568.917 1801.37,593.627 1782.56,612.444 " fill="none" id="IParserDetector-AdapterParserDetector" style="stroke: #A80036; stroke-width: 1.0; stroke-dasharray: 7.0,7.0;"/><polygon fill="none" points="1842.3,542.797,1861.4,533.604,1852.2,552.696,1842.3,542.797" style="stroke: #A80036; stroke-width: 1.0;"/><!--link IParserDetector to DependencyInversionParserDetector--><path d="M1934.84,547.837 C1955.92,568.917 1980.63,593.627 1999.44,612.444 " fill="none" id="IParserDetector-DependencyInversionParserDetector" style="stroke: #A80036; stroke-width: 1.0; stroke-dasharray: 7.0,7.0;"/><polygon fill="none" points="1929.8,552.696,1920.6,533.604,1939.7,542.797,1929.8,552.696" style="stroke: #A80036; stroke-width: 1.0;"/><!--link IParserDetector to DecoratorParserDetector--><path d="M1998.56,539.855 C2066.23,562.409 2152.48,591.159 2216.23,612.408 " fill="none" id="IParserDetector-DecoratorParserDetector" style="stroke: #A80036; stroke-width: 1.0; stroke-dasharray: 7.0,7.0;"/><polygon fill="none" points="1996.32,546.485,1979.56,533.52,2000.75,533.204,1996.32,546.485" style="stroke: #A80036; stroke-width: 1.0;"/><!--link IParserDetector to BadDecoratorParserDetector--><path d="M1993.41,539.324 C2002.01,541.767 2010.62,544.035 2019,546 C2200.01,588.475 2251.17,567.23 2433,606 C2441.97,607.912 2451.23,610.105 2460.48,612.445 " fill="none" id="IParserDetector-BadDecoratorParserDetector" style="stroke: #A80036; stroke-width: 1.0; stroke-dasharray: 7.0,7.0;"/><polygon fill="none" points="1991.23,545.98,1974.06,533.56,1995.23,532.563,1991.23,545.98" style="stroke: #A80036; stroke-width: 1.0;"/><!--link IParserDetector to CompositionOverInheritenceParserDetector--><path d="M1991.35,539.298 C2000.62,541.84 2009.94,544.133 2019,546 C2311.38,606.259 2392.81,561.488 2688,606 C2700.31,607.856 2713.07,610.057 2725.81,612.441 " fill="none" id="IParserDetector-CompositionOverInheritenceParserDetector" style="stroke: #A80036; stroke-width: 1.0; stroke-dasharray: 7.0,7.0;"/><polygon fill="none" points="1989.08,545.927,1971.85,533.597,1993.01,532.49,1989.08,545.927" style="stroke: #A80036; stroke-width: 1.0;"/><!--link App to Configuration--><path d="M974.291,79.021 C987.661,93.993 1003.357,111.571 1018.66,128.708 " fill="none" id="App-Configuration" style="stroke: #A80036; stroke-width: 1.0;"/><polygon fill="#A80036" points="965.439,69.109,966.4515,76.2487,973.4314,78.0601,972.4189,70.9204,965.439,69.109" style="stroke: #A80036; stroke-width: 1.0;"/><!--
@startuml
class App{
void main(String[] args)
}
class Runner{
void run(String[] args)
List<IUMLObject> parse(String path)
String build(List<IUMLObject> objects)
void display(String UML)
}
interface IBuilder{
{abstract} String build(List<IUMLObject> objects)
}
class PlantUMLBuilder implements IBuilder{
String build(List<IUMLObject> objects)
}
class PlantSequenceBuilder implements IBuilder{
String build(List<IUMLObject> objects)
}
interface IParser{
{abstract} List<IUMLObject> parse(String path)
}
class MasterParser implements IParser{
List<IUMLObject> parse(String path)
void addParseStrategy(IParserStrategy strat)
}
interface IParserFilter extends IParser{
{abstract} List<IUMLObject> process(List<IUMLObject> objects)
}
class NonRecursiveParserFilter implements IParserFilter{
List<IUMLObject> process(List<IUMLObject objects)
List<IUMLObject> parse(String path)
}
class PrivacyParserFilter implements IParserFilter{
List<IUMLObject> process(List<IUMLObject objects)
List<IUMLObject> parse(String path)
}
interface IUMLObject{
{abstract} String toUML()
{abstract} int getModifiers()
{abstract} SootClass getSootClass()
}

interface IDisplayer{
{abstract} void display(String UML)
}
class PlantDisplayer implements IDisplayer{
void display(String UML)
}
IBuilder *- - IUMLObject
Runner *- - IUMLObject
Runner *- - IDisplayer
Runner *- - IParser
IParser *- - IUMLObject
Runner *- - IBuilder
App *- - Runner
interface IParserStrategy{
List<IUMLObject> parse(SootClass clazz, List<SootClass> dependencies)
}
class MethodParserStrategy implements IParserStrategy{
List<IUMLObject> parse(SootClass clazz, List<SootClass> dependencies)
}
class SequenceParserStrategy implements IParserStrategy{
List<IUMLObject> parse(SootClass clazz, List<SootClass> dependencies)
}
MasterParser - -> IParserStrategy

interface ISDContextResolutionCommand{
List<IUMLObject> resolve(CallGraph, SootMethod, SootClass, Scene, int)
}

class FirstContextResolutionCommand implements ISDContextResolutionCommand{
List<IUMLObject> resolve(CallGraph, SootMethod, SootClass, Scene, int)
}
class NullContextResolutionCommand implements ISDContextResolutionCommand{
List<IUMLObject> resolve(CallGraph, SootMethod, SootClass, Scene, int)
}

SequenceParserStrategy *- - ISDContextResolutionCommand

interface IParserDetector extends IParser{
List<IUMLObject> parse(String path)
}

class SingletonParserDetector implements IParserDetector{
List<IUMLObject> parse(String path)
}
class AdapterParserDetector implements IParserDetector{
List<IUMLObject> parse(String path)
}
class DependencyInversionParserDetector implements IParserDetector{
List<IUMLObject> parse(String path)
}
class DecoratorParserDetector implements IParserDetector{
List<IUMLObject> parse(String path)
}
class BadDecoratorParserDetector implements IParserDetector{
List<IUMLObject> parse(String path)
}
class CompositionOverInheritenceParserDetector implements IParserDetector{
List<IUMLObject> parse(String path)
}

class Configuration {
private Map<String, List<String>> parameters
private void parseSettingsFile(String)
public List<String> getClasses()
public List<String> getBuilders()
public List<String> getDisplayers()
public List<String> getFilters()
public List<String> getStrategies()
public List<String> getPath()
}

App *- - Configuration
@enduml

PlantUML version 1.2018.01(Sun Jan 28 18:08:22 UTC 2018)
(GPL source distribution)
Java Runtime: Java(TM) SE Runtime Environment
JVM: Java HotSpot(TM) 64-Bit Server VM
Java Version: 1.7.0_25-b15
Operating System: Linux
Default Encoding: UTF-8
Language: en
Country: US
--></g></svg>